<svg width="22" height="16" viewBox="0 0 22 16" fill="none" xmlns="http://www.w3.org/2000/svg">
<g clip-path="url(#clip0_1_110)">
<path fill-rule="evenodd" clip-rule="evenodd" d="M0 0H30.4V1.23333H0V0ZM0 2.46333H30.4V3.69667H0V2.46333ZM0 4.92333H30.4V6.15667H0V4.92333ZM0 7.38333H30.4V8.61667H0V7.38333ZM0 9.85H30.4V11.0767H0V9.85ZM0 12.3067H30.4V13.54H0V12.3067ZM0 14.7667H30.4V16H0V14.7667Z" fill="#BD3D44"/>
<path fill-rule="evenodd" clip-rule="evenodd" d="M0 1.23334H30.4V2.46334H0V1.23334ZM0 3.69334H30.4V4.92334H0V3.69334ZM0 6.15334H30.4V7.38667H0V6.15334ZM0 8.61667H30.4V9.85H0V8.61667ZM0 11.0767H30.4V12.31H0V11.0767ZM0 13.5367H30.4V14.77H0V13.5367Z" fill="white"/>
<path fill-rule="evenodd" clip-rule="evenodd" d="M0 0H12.16V8.61667H0V0Z" fill="#192F5D"/>
<path fill-rule="evenodd" clip-rule="evenodd" d="M1.01333 0.366638L1.12667 0.709972H1.48L1.19333 0.919972L1.30333 1.2633L1.01333 1.04997L0.726668 1.25997L0.833335 0.919972L0.543335 0.709972H0.906668L1.01333 0.366638ZM3.04 0.366638L3.15 0.709972H3.51L3.22 0.919972L3.32667 1.2633L3.04 1.04997L2.75 1.25997L2.86 0.919972L2.57333 0.709972H2.92667L3.04 0.366638ZM5.06667 0.366638L5.17667 0.709972H5.53334L5.24667 0.919972L5.35667 1.2633L5.06667 1.04997L4.77667 1.25997L4.88667 0.919972L4.59667 0.709972H4.95667L5.06667 0.366638ZM7.09334 0.366638L7.20334 0.709972H7.56333L7.27333 0.919972L7.38334 1.2633L7.09334 1.04997L6.80334 1.25997L6.91667 0.919972L6.62333 0.709972H6.98L7.09334 0.366638ZM9.12 0.366638L9.23 0.709972H9.58667L9.3 0.919972L9.41 1.2633L9.12 1.04997L8.83 1.25997L8.94 0.919972L8.65334 0.709972H9.01L9.12 0.366638ZM11.1467 0.366638L11.2567 0.709972H11.6167L11.3233 0.919972L11.4367 1.2633L11.1467 1.04997L10.8567 1.25997L10.97 0.919972L10.6767 0.709972H11.0367L11.1467 0.366638ZM2.02667 1.2333L2.13667 1.5733H2.5L2.21 1.77997L2.31667 2.1233L2.03334 1.9133L1.74334 2.1233L1.84667 1.77997L1.56667 1.5733H1.92334L2.02667 1.2333ZM4.05334 1.2333L4.16667 1.5733H4.52333L4.23 1.77997L4.34334 2.1233L4.05334 1.9133L3.76334 2.1233L3.87333 1.77997L3.58333 1.5733H3.94334L4.05334 1.2333ZM6.08 1.2333L6.19 1.5733H6.55L6.26 1.77997L6.37 2.1233L6.08 1.9133L5.79 2.1233L5.9 1.77997L5.61334 1.5733H5.96667L6.08 1.2333ZM8.10667 1.2333L8.22 1.5733H8.57667L8.28334 1.77997L8.39667 2.1233L8.10667 1.9133L7.82 2.1233L7.92667 1.77997L7.63667 1.5733H8L8.10667 1.2333ZM10.1333 1.2333L10.2433 1.5733H10.6033L10.3133 1.77997L10.4233 2.1233L10.1333 1.9133L9.84334 2.1233L9.95334 1.77997L9.66667 1.5733H10.0233L10.1333 1.2333ZM1.01333 2.08664L1.12667 2.43331H1.48L1.19333 2.64331L1.30333 2.9833L1.01333 2.7733L0.726668 2.9833L0.833335 2.64331L0.543335 2.43331H0.906668L1.01333 2.08664ZM3.04 2.08664L3.15 2.43331H3.51L3.22 2.64331L3.32667 2.9833L3.04 2.7733L2.75 2.9833L2.86 2.63997L2.57333 2.42997H2.92667L3.04 2.08664ZM5.06667 2.08664L5.17667 2.42997H5.53334L5.24667 2.63997L5.35667 2.97997L5.06667 2.76997L4.77667 2.97997L4.88667 2.63664L4.59667 2.42664H4.95667L5.06667 2.08664ZM7.09334 2.08664L7.20334 2.42997H7.56333L7.27333 2.63997L7.38334 2.97997L7.09334 2.76997L6.80334 2.97997L6.91667 2.63664L6.62333 2.42664H6.98L7.09334 2.08664ZM9.12 2.08664L9.23 2.42997H9.58667L9.3 2.63997L9.41 2.97997L9.12 2.76997L8.83 2.97997L8.94 2.63664L8.65334 2.42664H9.01L9.12 2.08664ZM11.1467 2.08664L11.2567 2.42997H11.6167L11.3233 2.63997L11.4367 2.97997L11.1467 2.76997L10.8567 2.97997L10.97 2.63664L10.6767 2.42664H11.0367L11.1467 2.08664ZM2.02667 2.95331L2.13667 3.29331H2.5L2.21 3.5033L2.32 3.84664L2.03 3.63331L1.74 3.84331L1.85 3.5033L1.56334 3.29331H1.92L2.02667 2.95331ZM4.05334 2.95331L4.16667 3.29331H4.52333L4.23 3.5033L4.34334 3.84664L4.05334 3.63331L3.76334 3.84331L3.87333 3.5033L3.58333 3.29331H3.94334L4.05334 2.95331ZM6.08 2.95331L6.19 3.29331H6.55L6.26 3.5033L6.37 3.84664L6.08 3.63331L5.79 3.84331L5.9 3.5033L5.61334 3.29331H5.96667L6.08 2.95331ZM8.10667 2.95331L8.22 3.29331H8.57667L8.28667 3.5033L8.39667 3.84664L8.10667 3.63331L7.82 3.84331L7.92667 3.5033L7.63667 3.29331H8L8.10667 2.95331ZM10.1333 2.95331L10.2433 3.29331H10.6033L10.3133 3.5033L10.4233 3.84664L10.1333 3.63331L9.84334 3.84331L9.95334 3.5033L9.66667 3.29331H10.0233L10.1333 2.95331ZM1.01333 3.81664L1.12667 4.15664H1.48L1.19333 4.36664L1.30333 4.70997L1.01333 4.49664L0.726668 4.70664L0.833335 4.36664L0.543335 4.15664H0.906668L1.01333 3.81664ZM3.04 3.81664L3.15 4.15664H3.51L3.22 4.36664L3.32667 4.70664L3.04 4.49664L2.75 4.70664L2.86 4.36664L2.57333 4.15664H2.92667L3.04 3.81664ZM5.06667 3.81664L5.17667 4.15664H5.53334L5.24667 4.36664L5.35667 4.70997L5.06667 4.49664L4.77667 4.70664L4.88667 4.36664L4.59667 4.15664H4.95667L5.06667 3.81664ZM7.09334 3.81664L7.20334 4.15664H7.56333L7.27333 4.36664L7.38334 4.70997L7.09334 4.49664L6.80334 4.70664L6.91667 4.36664L6.62333 4.15664H6.98L7.09334 3.81664ZM9.12 3.81664L9.23 4.15664H9.58667L9.3 4.36664L9.41 4.70997L9.12 4.49664L8.83 4.70664L8.94 4.36664L8.65334 4.15664H9.01L9.12 3.81664ZM11.1467 3.81664L11.2567 4.15664H11.6167L11.3233 4.36664L11.4367 4.70997L11.1467 4.49664L10.8567 4.70664L10.9667 4.36664L10.6733 4.15664H11.0333L11.1467 3.81664ZM2.02667 4.67664L2.13667 5.01997H2.5L2.21 5.22664L2.32 5.56997L2.03 5.35664L1.74 5.56997L1.85 5.22664L1.56334 5.01664H1.92L2.02667 4.67664ZM4.05334 4.67664L4.16667 5.01997H4.52333L4.23 5.22664L4.34334 5.56997L4.05334 5.35664L3.76334 5.56997L3.87333 5.22664L3.58333 5.01664H3.94334L4.05334 4.67664ZM6.08 4.67664L6.19 5.01997H6.55L6.26 5.22664L6.37 5.56997L6.08 5.35664L5.79 5.56997L5.9 5.22664L5.61334 5.01664H5.96667L6.08 4.67664ZM8.10667 4.67664L8.22 5.01997H8.57667L8.28667 5.22664L8.39667 5.56997L8.10667 5.35664L7.82 5.56997L7.92667 5.22664L7.63667 5.01664H8L8.10667 4.67664ZM10.1333 4.67664L10.2433 5.01997H10.6033L10.3133 5.22664L10.4233 5.56997L10.1333 5.35664L9.84334 5.56997L9.95334 5.22664L9.66667 5.01664H10.0233L10.1333 4.67664ZM1.01333 5.53664L1.12667 5.87997H1.48L1.19333 6.08997L1.30333 6.42664L1.01333 6.21997L0.726668 6.42664L0.833335 6.08664L0.543335 5.87664H0.906668L1.01333 5.53664ZM3.04 5.53664L3.15 5.87997H3.51L3.22 6.08997L3.33 6.42664L3.04 6.21997L2.75 6.42664L2.86334 6.08664L2.57333 5.87664H2.92667L3.04 5.53664ZM5.06667 5.53664L5.17667 5.87997H5.53334L5.24667 6.08997L5.35667 6.42664L5.06667 6.21997L4.77667 6.42664L4.88667 6.08664L4.59667 5.87664H4.95667L5.06667 5.53664ZM7.09334 5.53664L7.20334 5.87997H7.56333L7.27333 6.08997L7.38334 6.42664L7.09334 6.21997L6.80334 6.42664L6.91667 6.08664L6.62333 5.87664H6.98L7.09334 5.53664ZM9.12 5.53664L9.23 5.87997H9.58667L9.3 6.08997L9.41 6.42664L9.12 6.21997L8.83 6.42664L8.94 6.08664L8.65334 5.87664H9.01L9.12 5.53664ZM11.1467 5.53664L11.2567 5.87997H11.6167L11.3233 6.08997L11.4367 6.42664L11.1467 6.21997L10.8567 6.42664L10.97 6.08664L10.6767 5.87664H11.0367L11.1467 5.53664ZM2.02667 6.39997L2.13667 6.73997H2.5L2.21 6.94997L2.32 7.29331L2.03 7.07997L1.74 7.28997L1.85 6.94997L1.56334 6.73997H1.92L2.02667 6.39997ZM4.05334 6.39997L4.16667 6.73997H4.52333L4.23 6.94997L4.34334 7.29331L4.05334 7.07997L3.76334 7.28997L3.87333 6.94997L3.58333 6.73997H3.94334L4.05334 6.39997ZM6.08 6.39997L6.19 6.73997H6.55L6.26 6.94997L6.37 7.29331L6.08 7.07997L5.79 7.28997L5.9 6.94997L5.61334 6.73997H5.96667L6.08 6.39997ZM8.10667 6.39997L8.22 6.73997H8.57667L8.28667 6.94997L8.39667 7.29331L8.10667 7.07997L7.82 7.28997L7.92667 6.94997L7.63667 6.73997H8L8.10667 6.39997ZM10.1333 6.39997L10.2433 6.73997H10.6033L10.3133 6.94997L10.4233 7.29331L10.1333 7.07997L9.84334 7.28997L9.95334 6.94997L9.66667 6.73997H10.0233L10.1333 6.39997ZM1.01333 7.26331L1.12667 7.60331H1.48L1.19333 7.8133L1.30333 8.15331L1.01333 7.94331L0.726668 8.15331L0.833335 7.80997L0.543335 7.59997H0.906668L1.01333 7.26331ZM3.04 7.26331L3.15 7.60331H3.51L3.22 7.8133L3.33 8.15331L3.04 7.94331L2.75 8.15331L2.86334 7.80997L2.57333 7.59997H2.92667L3.04 7.26331ZM5.06667 7.26331L5.17667 7.60331H5.53334L5.25334 7.8133L5.36334 8.15331L5.07334 7.94331L4.78334 8.15331L4.89334 7.80997L4.60334 7.59997H4.96334L5.06667 7.26331ZM7.09334 7.26331L7.20334 7.60331H7.56333L7.27333 7.8133L7.38334 8.15331L7.09334 7.94331L6.80334 8.15331L6.91667 7.80997L6.62333 7.59997H6.98L7.09334 7.26331ZM9.12 7.26331L9.23 7.60331H9.58667L9.3 7.8133L9.41 8.15331L9.12 7.94331L8.83 8.15331L8.94 7.80997L8.65334 7.59997H9.01L9.12 7.26331ZM11.1467 7.26331L11.2567 7.60331H11.6167L11.3233 7.8133L11.4367 8.15331L11.1467 7.94331L10.8567 8.15331L10.97 7.80997L10.6767 7.59997H11.0367L11.1467 7.26331Z" fill="white"/>
</g>
<defs>
<clipPath id="clip0_1_110">
<rect width="21.3333" height="16" fill="white"/>
</clipPath>
</defs>
</svg>
